<svg width="24" height="24" viewBox="0 0 24 24" fill="none" xmlns="http://www.w3.org/2000/svg">
<path d="M22.125 4.5H18V1.875H16.5V4.5H7.5V1.875H6V4.5H1.875C1.57674 4.50035 1.29079 4.61899 1.07989 4.82989C0.868985 5.04079 0.750347 5.32674 0.75 5.625V21.375C0.750347 21.6733 0.868985 21.9592 1.07989 22.1701C1.29079 22.381 1.57674 22.4997 1.875 22.5H22.125C22.4233 22.4997 22.7092 22.381 22.9201 22.1701C23.131 21.9592 23.2497 21.6733 23.25 21.375V5.625C23.2497 5.32674 23.131 5.04079 22.9201 4.82989C22.7092 4.61899 22.4233 4.50035 22.125 4.5ZM21.75 21H2.25V6H6V7.875H7.5V6H16.5V7.875H18V6H21.75V21Z" fill="#969EAD"/>
<path d="M6.75 10.5H5.25V12H6.75V10.5Z" fill="#969EAD"/>
<path d="M10.875 10.5H9.375V12H10.875V10.5Z" fill="#969EAD"/>
<path d="M14.625 10.5H13.125V12H14.625V10.5Z" fill="#969EAD"/>
<path d="M18.75 10.5H17.25V12H18.75V10.5Z" fill="#969EAD"/>
<path d="M6.75 13.875H5.25V15.375H6.75V13.875Z" fill="#969EAD"/>
<path d="M10.875 13.875H9.375V15.375H10.875V13.875Z" fill="#969EAD"/>
<path d="M14.625 13.875H13.125V15.375H14.625V13.875Z" fill="#969EAD"/>
<path d="M18.75 13.875H17.25V15.375H18.75V13.875Z" fill="#969EAD"/>
<path d="M6.75 17.25H5.25V18.75H6.75V17.25Z" fill="#969EAD"/>
<path d="M10.875 17.25H9.375V18.75H10.875V17.25Z" fill="#969EAD"/>
<path d="M14.625 17.25H13.125V18.75H14.625V17.25Z" fill="#969EAD"/>
<path d="M18.75 17.25H17.25V18.75H18.75V17.25Z" fill="#969EAD"/>
</svg>
