<svg width="20" height="20" viewBox="0 0 20 20" fill="none" xmlns="http://www.w3.org/2000/svg">
<path d="M15.625 6.375V2.65625C15.6248 2.44912 15.5424 2.25055 15.3959 2.10409C15.2495 1.95762 15.0509 1.87524 14.8438 1.875H5.15625C4.94912 1.87524 4.75055 1.95762 4.60409 2.10409C4.45762 2.25055 4.37524 2.44912 4.375 2.65625V6.375L0.625 9.05336V19.375H19.375V9.05336L15.625 6.375ZM17.7218 9.40887L15.625 10.7797V7.91094L17.7218 9.40887ZM5.625 3.125H14.375V11.597L12.142 13.0571L10.3225 12.1136L8.33953 13.0709L5.625 11.4229V3.125ZM10.3025 13.5113L18.125 17.5675V18.125H1.875V17.5798L10.3025 13.5113ZM1.875 10.6084L6.99781 13.7188L1.875 16.1918V10.6084ZM13.4159 13.7178L18.125 10.6386V16.1594L13.4159 13.7178ZM4.375 7.91094V10.6641L2.29164 9.39902L4.375 7.91094Z" fill="#969EAD"/>
</svg>
