<svg width="24" height="24" viewBox="0 0 24 24" fill="none" xmlns="http://www.w3.org/2000/svg">
<path d="M11.9026 5.98108C11.3092 5.98108 10.7292 6.15703 10.2359 6.48667C9.74253 6.81631 9.35801 7.28485 9.13095 7.83303C8.90389 8.38121 8.84448 8.98441 8.96023 9.56635C9.07599 10.1483 9.36171 10.6828 9.78127 11.1024C10.2008 11.522 10.7354 11.8077 11.3173 11.9234C11.8993 12.0392 12.5025 11.9798 13.0506 11.7527C13.5988 11.5257 14.0674 11.1411 14.397 10.6478C14.7266 10.1544 14.9026 9.57442 14.9026 8.98108C14.9017 8.18571 14.5853 7.42317 14.0229 6.86076C13.4605 6.29835 12.698 5.98198 11.9026 5.98108ZM11.9026 10.4811C11.6059 10.4811 11.3159 10.3931 11.0692 10.2283C10.8226 10.0635 10.6303 9.82919 10.5168 9.5551C10.4032 9.28102 10.3735 8.97941 10.4314 8.68844C10.4893 8.39747 10.6322 8.1302 10.8419 7.92042C11.0517 7.71064 11.319 7.56778 11.61 7.5099C11.9009 7.45202 12.2025 7.48173 12.4766 7.59526C12.7507 7.70879 12.985 7.90105 13.1498 8.14772C13.3146 8.3944 13.4026 8.68441 13.4026 8.98108C13.4021 9.37876 13.2439 9.76003 12.9627 10.0412C12.6815 10.3224 12.3003 10.4806 11.9026 10.4811Z" fill="#969EAD"/>
<path d="M17.6676 3.21165C16.2422 1.78667 14.3396 0.940179 12.3268 0.835541C10.3141 0.730904 8.33388 1.37554 6.76846 2.64504C5.20304 3.91454 4.16335 5.71891 3.85006 7.70989C3.53677 9.70087 3.97209 11.7373 5.07199 13.4262L10.7395 22.1268C10.8656 22.3204 11.0381 22.4795 11.2412 22.5896C11.4444 22.6997 11.6718 22.7574 11.9028 22.7574C12.1339 22.7574 12.3613 22.6997 12.5644 22.5896C12.7676 22.4795 12.94 22.3204 13.0661 22.1268L18.7339 13.4262C19.7544 11.8595 20.2055 9.98963 20.0113 8.12994C19.8172 6.27025 18.9897 4.5338 17.6676 3.21165ZM17.477 12.6075L11.9029 21.1645L6.32862 12.6075C4.62237 9.98814 4.98832 6.48283 7.19876 4.2723C7.8165 3.65453 8.54988 3.1645 9.35701 2.83017C10.1641 2.49584 11.0292 2.32376 11.9029 2.32376C12.7765 2.32376 13.6416 2.49584 14.4487 2.83017C15.2558 3.1645 15.9892 3.65453 16.6069 4.2723C18.8174 6.48283 19.1833 9.98814 17.477 12.6075Z" fill="#969EAD"/>
</svg>
