<svg width="22" height="22" viewBox="0 0 22 22" fill="none" xmlns="http://www.w3.org/2000/svg">
<path d="M17.3587 14.781C16.8585 14.7811 16.365 14.8962 15.9164 15.1175C15.4678 15.3388 15.0761 15.6603 14.7716 16.0572L7.72806 12.0595C7.96473 11.3728 7.96473 10.6267 7.72806 9.93998L14.7716 5.94234C15.2633 6.58022 15.9735 7.01373 16.7655 7.15947C17.5576 7.3052 18.3756 7.15286 19.0621 6.73175C19.7486 6.31064 20.2551 5.65052 20.4842 4.87841C20.7132 4.1063 20.6486 3.27676 20.3028 2.54941C19.957 1.82206 19.3544 1.2483 18.611 0.938524C17.8676 0.62875 17.0359 0.604854 16.2759 0.871434C15.516 1.13801 14.8814 1.67624 14.4944 2.38253C14.1075 3.08882 13.9953 3.91329 14.1797 4.69727L7.01611 8.76306C6.56784 8.2862 5.98664 7.95503 5.34787 7.81251C4.7091 7.66998 4.04224 7.72268 3.43378 7.96376C2.82533 8.20485 2.30335 8.6232 1.93555 9.16455C1.56775 9.7059 1.37109 10.3453 1.37109 10.9998C1.37109 11.6542 1.56775 12.2936 1.93555 12.835C2.30335 13.3763 2.82533 13.7947 3.43378 14.0358C4.04224 14.2768 4.7091 14.3295 5.34787 14.187C5.98664 14.0445 6.56784 13.7133 7.01611 13.2365L14.1797 17.3023C14.0253 17.9623 14.0801 18.654 14.3365 19.2814C14.5929 19.9089 15.0382 20.441 15.6106 20.8039C16.1831 21.1669 16.8543 21.3427 17.5312 21.3069C18.2081 21.2712 18.857 21.0257 19.3881 20.6045C19.9192 20.1833 20.306 19.6073 20.4949 18.9564C20.6838 18.3054 20.6655 17.6118 20.4425 16.9717C20.2194 16.3317 19.8027 15.7769 19.2501 15.3843C18.6975 14.9918 18.0365 14.7809 17.3587 14.781ZM17.3587 2.06226C17.7326 2.06226 18.0982 2.17314 18.4091 2.38089C18.72 2.58863 18.9623 2.88391 19.1054 3.22937C19.2485 3.57484 19.2859 3.95498 19.213 4.32173C19.14 4.68847 18.96 5.02535 18.6956 5.28976C18.4312 5.55417 18.0943 5.73423 17.7275 5.80718C17.3608 5.88013 16.9806 5.84269 16.6352 5.69959C16.2897 5.5565 15.9944 5.31417 15.7867 5.00326C15.5789 4.69235 15.4681 4.32681 15.4681 3.95288C15.4686 3.45163 15.668 2.97107 16.0224 2.61662C16.3769 2.26218 16.8574 2.06282 17.3587 2.06226ZM4.63994 12.8904C4.26601 12.8904 3.90047 12.7795 3.58956 12.5718C3.27865 12.364 3.03632 12.0687 2.89323 11.7233C2.75013 11.3778 2.71269 10.9977 2.78564 10.6309C2.85859 10.2642 3.03866 9.92729 3.30306 9.66288C3.56747 9.39847 3.90435 9.21841 4.27109 9.14546C4.63784 9.07251 5.01798 9.10995 5.36345 9.25305C5.70892 9.39614 6.00419 9.63847 6.21193 9.94938C6.41968 10.2603 6.53056 10.6258 6.53056 10.9998C6.53001 11.501 6.33064 11.9816 5.9762 12.336C5.62176 12.6905 5.14119 12.8898 4.63994 12.8904ZM17.3587 19.9373C16.9848 19.9373 16.6192 19.8264 16.3083 19.6186C15.9974 19.4109 15.7551 19.1156 15.612 18.7701C15.4689 18.4247 15.4314 18.0445 15.5044 17.6778C15.5773 17.311 15.7574 16.9742 16.0218 16.7098C16.2862 16.4453 16.6231 16.2653 16.9898 16.1923C17.3566 16.1194 17.7367 16.1568 18.0822 16.2999C18.4277 16.443 18.7229 16.6853 18.9307 16.9963C19.1384 17.3072 19.2493 17.6727 19.2493 18.0466C19.2488 18.5479 19.0494 19.0285 18.6949 19.3829C18.3405 19.7373 17.8599 19.9367 17.3587 19.9373Z" fill="#424B5A"/>
</svg>
